<svg 
      xmlns="http://www.w3.org/2000/svg" 
      viewBox="0 0 110 42"
      fill=""
    >
      <title>Heim Logo</title>
      <path d="M56.3094 13.7284V23.6379H51.0547V6.2881H56.3094V8.03295C57.2618 6.91361 58.8382 5.92596 61.0386 5.92596C63.1076 5.92596 64.8154 6.81485 65.8007 8.29633C66.7859 7.20991 68.4937 5.92596 71.1539 5.92596C74.6679 5.92596 76.9997 8.39509 76.9997 12.1811V23.6379H71.745V13.6955C71.745 11.9506 71.0554 10.6667 69.3804 10.6667C68.0011 10.6667 66.6546 11.6873 66.6546 13.7284V23.6379H61.3999V13.6955C61.3999 11.9506 60.743 10.6667 59.0352 10.6667C57.6559 10.6667 56.3094 11.6873 56.3094 13.7284Z" />
      <path d="M42.3306 4.51033V3.8147e-05L47.6838 1.31803V4.51033H42.3306ZM47.6181 6.28811V23.6379H42.3634V6.28811H47.6181Z" />
      <path d="M31.9626 24C26.7408 24 23.1938 20.3457 23.1938 14.9465C23.1938 9.81072 26.8721 5.92594 31.8641 5.92594C37.1188 5.92594 39.976 9.81072 39.976 14.7161V16.0988H28.2515C28.6127 18.4692 30.0249 19.8189 32.0283 19.8189C33.6704 19.8189 34.9512 19.0288 35.4438 17.5144L39.8446 18.9301C38.5638 22.2552 35.411 24 31.9626 24ZM31.7984 10.0082C30.1892 10.0082 28.9412 10.963 28.4157 12.8724H34.787C34.7542 11.3251 33.7361 10.0082 31.7984 10.0082Z" />
      <path d="M15.0744 0H20.559V23.6379H15.0744V13.893H5.48458V23.6379H0V0H5.48458V9.21811H15.0744V0Z" />
      <text x="64" y="38" fontSize="14" fontWeight="700" fontFamily="system-ui, -apple-system, sans-serif" opacity="0.6">DOCS</text>
</svg>