<svg xmlns="http://www.w3.org/2000/svg" fill="none" viewBox="0 0 92 26"><path fill="#382B75" d="M88.422 6.85c-2.053 0-3.568-1.454-3.568-3.425C84.854 1.455 86.37 0 88.422 0S92 1.454 92 3.425c0 1.97-1.525 3.425-3.578 3.425Zm0-.775c1.575 0 2.74-1.129 2.74-2.65s-1.165-2.65-2.74-2.65c-1.574 0-2.73 1.129-2.73 2.65s1.156 2.65 2.73 2.65Zm1.695-1.08H89.06l-.707-1.264h-.34v1.263h-.896l-.01-3.377h1.445c.707 0 1.166.411 1.166 1.062 0 .354-.17.67-.469.86l.868 1.455Zm-2.103-2.641v.64h.378c.27 0 .429-.124.429-.315 0-.21-.16-.325-.429-.325h-.378ZM60.237 15.035v10.578h-5.62V7.093h5.62v1.862c1.02-1.195 2.706-2.25 5.06-2.25 2.213 0 4.04.95 5.094 2.531 1.054-1.16 2.88-2.53 5.726-2.53 3.76 0 6.254 2.635 6.254 6.677v12.23H76.75V15c0-1.863-.738-3.234-2.53-3.234-1.475 0-2.916 1.09-2.916 3.269v10.578h-5.621V15c0-1.863-.703-3.234-2.53-3.234-1.475 0-2.916 1.09-2.916 3.269ZM45.283 5.195V.38l5.727 1.407v3.408h-5.727Zm5.657 1.897v18.521h-5.622V7.093h5.622ZM34.192 26c-5.586 0-9.38-3.901-9.38-9.665 0-5.482 3.935-9.63 9.275-9.63 5.621 0 8.678 4.148 8.678 9.384v1.476H30.222c.387 2.53 1.898 3.971 4.04 3.971 1.757 0 3.127-.843 3.654-2.46l4.708 1.512C41.254 24.138 37.881 26 34.192 26Zm-.175-14.937c-1.722 0-3.057 1.02-3.619 3.058h6.816c-.035-1.652-1.124-3.058-3.197-3.058ZM16.126.38h5.867v25.233h-5.867V15.211H5.867v10.402H0V.38h5.867v9.84h10.259V.38Z"/></svg>